v -0.300000 0.000000 -1.500000
v -0.300000 0.000000 1.500000
v -0.300000 2.400000 -1.500000
v -0.300000 2.400000 1.500000
v 0.300000 0.000000 -1.500000
v 0.300000 0.000000 1.500000
v 0.300000 2.400000 -1.500000
v 0.300000 2.400000 1.500000
v 0.000000 1.000000 -1.500000
v 0.000000 1.000000 1.500000
v 0.000000 2.200000 1.500000
v 0.000000 2.200000 -1.500000
v 0.000000 1.807642 -0.606218
v 0.000000 1.232662 -0.396943
v 0.000000 1.702509 -0.567953
v 0.000000 1.948623 -1.405764
v 0.000000 1.861799 -0.913360
v -0.020000 1.081206 -1.193160
v -0.020000 1.118794 -1.206840
v -0.020000 1.392410 -0.455086
v -0.020000 1.354822 -0.441406
v 0.020000 1.081206 -1.193160
v 0.020000 1.118794 -1.206840
v 0.020000 1.392410 -0.455086
v 0.020000 1.354822 -0.441406
v -0.020000 1.241213 -0.373451
v -0.020000 1.224112 -0.420435
v -0.020000 1.693958 -0.591445
v -0.020000 1.711059 -0.544461
v 0.020000 1.241213 -0.373451
v 0.020000 1.224112 -0.420435
v 0.020000 1.693958 -0.591445
v 0.020000 1.711059 -0.544461
v 0.000000 1.400000 1.500000
v 0.000000 1.400000 2.100000
v 0.000000 2.000000 2.100000
v 0.000000 2.000000 1.500000
v 0.000000 1.000000 3.000000
v 0.000000 1.000000 4.200000
v 0.000000 2.200000 4.200000
v 0.000000 2.200000 3.000000
v 0.000000 -1.855297 4.100000
v 0.000000 1.720000 4.100000
v 0.000000 2.035000 4.100000
v 0.000000 2.374408 3.807756
v 0.000000 2.060157 3.829468
v -0.018000 1.582497 3.604201
v -0.018000 1.617503 3.595799
v -0.018000 1.737503 4.095799
v -0.018000 1.702497 4.104201
v 0.018000 1.582497 3.604201
v 0.018000 1.617503 3.595799
v 0.018000 1.737503 4.095799
v 0.018000 1.702497 4.104201
v -0.014000 1.886484 3.603649
v -0.014000 1.913516 3.596351
v -0.014000 2.048516 4.096351
v -0.014000 2.021484 4.103649
v 0.014000 1.886484 3.603649
v 0.014000 1.913516 3.596351
v 0.014000 2.048516 4.096351
v 0.014000 2.021484 4.103649
v -0.018000 1.720000 4.122000
v -0.018000 1.720000 4.078000
v -0.018000 2.035000 4.078000
v -0.018000 2.035000 4.122000
v 0.018000 1.720000 4.122000
v 0.018000 1.720000 4.078000
v 0.018000 2.035000 4.078000
v 0.018000 2.035000 4.122000
v 0.000000 1.000000 4.800000
v 0.000000 1.000000 6.000000
v 0.000000 2.200000 6.000000
v 0.000000 2.200000 4.800000
v 0.000000 3.752598 5.800000
v 0.000000 1.250000 5.800000
v 0.000000 1.850000 5.800000
v 0.000000 2.088399 5.763007
v 0.000000 1.488547 5.749673
v -0.018000 1.582139 5.397767
v -0.018000 1.617861 5.402233
v -0.018000 1.567861 5.802233
v -0.018000 1.532139 5.797767
v 0.018000 1.582139 5.397767
v 0.018000 1.617861 5.402233
v 0.018000 1.567861 5.802233
v 0.018000 1.532139 5.797767
v -0.014000 1.896155 5.397923
v -0.014000 1.923845 5.402077
v -0.014000 1.863845 5.802077
v -0.014000 1.836155 5.797923
v 0.014000 1.896155 5.397923
v 0.014000 1.923845 5.402077
v 0.014000 1.863845 5.802077
v 0.014000 1.836155 5.797923
v -0.018000 1.250000 5.822000
v -0.018000 1.250000 5.778000
v -0.018000 1.850000 5.778000
v -0.018000 1.850000 5.822000
v 0.018000 1.250000 5.822000
v 0.018000 1.250000 5.778000
v 0.018000 1.850000 5.778000
v 0.018000 1.850000 5.822000
v 0.000000 1.000000 6.600000
v 0.000000 1.000000 7.800000
v 0.000000 2.200000 7.800000
v 0.000000 2.200000 6.600000
v 0.000000 1.240000 7.600000
v 0.000000 1.860000 7.600000
v 0.000000 1.250196 7.601143
v 0.000000 1.870196 7.601143
v 0.000000 1.260418 7.602026
v 0.000000 1.880418 7.602026
v 0.000000 1.270659 7.602649
v 0.000000 1.890659 7.602649
v 0.000000 1.280913 7.603010
v 0.000000 1.900913 7.603010
v 0.000000 1.291172 7.603111
v 0.000000 1.911172 7.603111
v 0.000000 1.301431 7.602951
v 0.000000 1.921431 7.602951
v 0.000000 1.311683 7.602529
v 0.000000 1.931683 7.602529
v 0.000000 1.321920 7.601847
v 0.000000 1.941920 7.601847
v 0.000000 1.332137 7.600905
v 0.000000 1.952137 7.600905
v 0.000000 1.342326 7.599702
v 0.000000 1.962326 7.599702
v 0.000000 1.352481 7.598241
v 0.000000 1.972481 7.598241
v 0.000000 1.362596 7.596522
v 0.000000 1.982596 7.596522
v 0.000000 1.372664 7.594546
v 0.000000 1.992664 7.594546
v 0.000000 1.382679 7.592314
v 0.000000 2.002679 7.592314
v 0.000000 1.392633 7.589829
v 0.000000 2.012633 7.589829
v 0.000000 1.402521 7.587090
v 0.000000 2.022521 7.587090
v 0.000000 1.412336 7.584101
v 0.000000 2.032336 7.584101
v 0.000000 1.422072 7.580864
v 0.000000 2.042072 7.580864
v 0.000000 1.431722 7.577379
v 0.000000 2.051722 7.577379
v 0.000000 1.441280 7.573650
v 0.000000 2.061280 7.573650
v 0.000000 1.450741 7.569679
v 0.000000 2.070741 7.569679
v 0.000000 1.460097 7.565468
v 0.000000 2.080097 7.565468
v 0.000000 1.469343 7.561021
v 0.000000 2.089343 7.561021
v 0.000000 1.478473 7.556340
v 0.000000 2.098473 7.556340
v -0.018000 1.582139 7.197767
v -0.018000 1.617861 7.202233
v -0.018000 1.567861 7.602233
v -0.018000 1.532139 7.597767
v 0.018000 1.582139 7.197767
v 0.018000 1.617861 7.202233
v 0.018000 1.567861 7.602233
v 0.018000 1.532139 7.597767
v -0.014000 1.896108 7.198264
v -0.014000 1.923892 7.201736
v -0.014000 1.873892 7.601736
v -0.014000 1.846108 7.598264
v 0.014000 1.896108 7.198264
v 0.014000 1.923892 7.201736
v 0.014000 1.873892 7.601736
v 0.014000 1.846108 7.598264
v -0.018000 1.240000 7.622000
v -0.018000 1.240000 7.578000
v -0.018000 1.860000 7.578000
v -0.018000 1.860000 7.622000
v 0.018000 1.240000 7.622000
v 0.018000 1.240000 7.578000
v 0.018000 1.860000 7.578000
v 0.018000 1.860000 7.622000
v 0.000000 1.000000 -2.600000
v 0.000000 1.000000 -1.600000
v 0.000000 2.200000 -1.600000
v 0.000000 2.200000 -2.600000
# GENERATED by fixture/make_wipefix.js - do not edit by hand.
mtllib wipefix.mtl

o body
f 1 2 3 4
f 5 8 7 6
f 1 5 6 2
f 2 6 7 3
f 3 7 8 4
f 4 8 5 1
o mmtr_windshield_1_1
f 9 10 11 12
o mmtr_wipersweep_1_1
f 13 14 15
f 13 15 16
f 13 16 17
o wiperarm_1_1
f 18 19 20 21
f 22 25 24 23
f 18 22 23 19
f 19 23 24 20
f 20 24 25 21
f 21 25 22 18
o wiper_1_1
f 26 27 28 29
f 30 33 32 31
f 26 30 31 27
f 27 31 32 28
f 28 32 33 29
f 29 33 30 26
o mmtr_windshield_1_2
f 34 35 36 37
o mmtr_windshield_1_3
f 38 39 40 41
o mmtr_wipersweep_1_3
f 42 43 44
f 42 44 45
f 42 45 46
o wiperarm_1_3
f 47 48 49 50
f 51 54 53 52
f 47 51 52 48
f 48 52 53 49
f 49 53 54 50
f 50 54 51 47
o wiperrod_1_3
f 55 56 57 58
f 59 62 61 60
f 55 59 60 56
f 56 60 61 57
f 57 61 62 58
f 58 62 59 55
o wiper_1_3
f 63 64 65 66
f 67 70 69 68
f 63 67 68 64
f 64 68 69 65
f 65 69 70 66
f 66 70 67 63
o mmtr_windshield_1_4
f 71 72 73 74
o mmtr_wipersweep_1_4
f 75 76 77
f 75 77 78
f 75 78 79
o wiperarm_1_4
f 80 81 82 83
f 84 87 86 85
f 80 84 85 81
f 81 85 86 82
f 82 86 87 83
f 83 87 84 80
o wiperrod_1_4
f 88 89 90 91
f 92 95 94 93
f 88 92 93 89
f 89 93 94 90
f 90 94 95 91
f 91 95 92 88
o wiper_1_4
f 96 97 98 99
f 100 103 102 101
f 96 100 101 97
f 97 101 102 98
f 98 102 103 99
f 99 103 100 96
o mmtr_windshield_1_5
f 104 105 106 107
o mmtr_wipersweep_1_5
f 108 109 111 110
f 110 111 113 112
f 112 113 115 114
f 114 115 117 116
f 116 117 119 118
f 118 119 121 120
f 120 121 123 122
f 122 123 125 124
f 124 125 127 126
f 126 127 129 128
f 128 129 131 130
f 130 131 133 132
f 132 133 135 134
f 134 135 137 136
f 136 137 139 138
f 138 139 141 140
f 140 141 143 142
f 142 143 145 144
f 144 145 147 146
f 146 147 149 148
f 148 149 151 150
f 150 151 153 152
f 152 153 155 154
f 154 155 157 156
o wiperarm_1_5
f 158 159 160 161
f 162 165 164 163
f 158 162 163 159
f 159 163 164 160
f 160 164 165 161
f 161 165 162 158
o wiperrod_1_5
f 166 167 168 169
f 170 173 172 171
f 166 170 171 167
f 167 171 172 168
f 168 172 173 169
f 169 173 170 166
o wiper_1_5
f 174 175 176 177
f 178 181 180 179
f 174 178 179 175
f 175 179 180 176
f 176 180 181 177
f 177 181 178 174
o mmtr_windshield_2
f 182 183 184 185
